<svg version="1.1" id="Layer_1" xmlns="http://www.w3.org/2000/svg" xmlns:xlink="http://www.w3.org/1999/xlink" width="34" height="45" x="0px" y="0px"
	 viewBox="0 0 24.7 33.3" style="enable-background:new 0 0 24.7 33.3;" xml:space="preserve">
<path class="st0" d="M10.2,6.9c1.7,1.1,4.1,0.6,5.2-1.1c1.1-1.7,0.6-4.1-1.1-5.2S10.2,0,9.1,1.7C8.7,2.3,8.5,3,8.5,3.8
	C8.5,5,9.1,6.2,10.2,6.9z M12.2,1.4c1.3,0,2.3,0.9,2.4,2.2c0,1.3-0.9,2.3-2.2,2.4c-1.3,0-2.3-0.9-2.4-2.2c0,0,0-0.1,0-0.1
	C10,2.5,11,1.5,12.2,1.4L12.2,1.4z" fill="#A99169"/>
<path class="st0" d="M15.2,33.3c-0.6,0-1.1-0.2-1.6-0.5c-0.5-0.5-0.8-1.3-0.8-2c0-2.2,0-6.9,0-8.7h-1c0,1.7,0,6.4,0,8.6
	s-1.3,2.6-2.3,2.6c-0.7,0-1.3-0.2-1.8-0.6c-0.5-0.5-0.8-1.3-0.7-2c0-1,0-2.3,0-3.8c0.1-4.5,0.2-13.9-0.6-15C4.7,10.4,2.9,9,1.2,7.6
	C0.3,7.1-0.2,6,0.1,4.9c0.1-0.7,0.6-1.2,1.2-1.5C2,3.1,2.9,3.2,3.6,3.7c0.8,0.5,1.6,1.1,2.3,1.7l0.5,0.4c4.4,3.4,7.3,3.5,11.8,0.1
	l0.3-0.3c0.8-0.6,1.5-1.1,2.4-1.7c0.6-0.4,1.4-0.6,2.2-0.5c0.5,0.1,1,0.5,1.3,1C25,5.6,24.6,7,23.5,7.7L21.9,9
	c-1.2,0.9-2.4,1.8-3.5,2.7c-0.9,1.1-0.8,11.5-0.8,16c0,1.2,0,2.2,0,3c0,2-1.1,2.5-2,2.6L15.2,33.3z M12.2,20.6c1.3,0,2.1,0,2.1,0.8
	v0.1c0,0.8,0,6.7,0,9.3c0,0.3,0.1,0.6,0.3,0.8c0.3,0.2,0.6,0.2,0.8,0.1c0.4,0,0.7-0.2,0.7-1.1c0-0.8,0-1.8,0-3
	c-0.1-10.8,0-16.2,1.3-17.2s2.4-1.8,3.5-2.7l1.6-1.2c0.5-0.4,0.7-1,0.5-1.4C23,5,22.9,4.9,22.7,4.9c-0.4,0-0.7,0-1,0.3
	c-0.8,0.5-1.5,1.1-2.3,1.6l-0.3,0.3c-5,3.7-8.7,3.7-13.6-0.1L5,6.6C4.3,6,3.5,5.5,2.8,5C2.5,4.8,2.2,4.8,1.9,4.9
	C1.7,4.9,1.6,5.1,1.5,5.3c-0.1,0.5,0.1,1,0.5,1.2c1.7,1.3,3.5,2.8,5.3,4.3c1.1,0.9,1.3,5.7,1.1,16.1c0,1.5,0,2.8,0,3.8
	c0,0.3,0.1,0.7,0.3,0.9c0.2,0.2,0.5,0.2,0.7,0.2c0.5,0,0.8-0.1,0.8-1.1c0-2.7,0-9.1,0-9.2c0-0.7,0.8-0.8,1.1-0.8L12.2,20.6z" fill="#A99169"/>
</svg>
