<svg xmlns="http://www.w3.org/2000/svg" width="100" height="100" viewBox="0 0 100 100"><path fill="#B0976D" d="M27.731 58.834l.001-.001-15.408-15.405v30.824l5.18-5.179 10.23-10.236zm18.775-18.77H15.683l15.409 15.409zm-30.817-4.752h30.816L31.093 19.908zm15.41 62.461l15.407-15.408H15.689zm57.702-15.408H57.98l15.411 15.408zm.002-4.751L73.391 62.197 57.979 77.614zm-34.182-3.362L70.03 58.836l-5.502-5.502-9.907-9.903zm-4.755-30.826L34.459 58.84l4.992 4.992 10.415 10.414zM34.452 58.833l.007.007 15.407-15.414v-.004zm-3.354 3.368l-9.848 9.845-5.564 5.568H46.51l-8.278-8.281z"/><path fill="#B0976D" d="M31.094 62.197l-9.844 9.849 9.848-9.845zm.005.003l-.001.001 7.134 7.132-7.131-7.133-.001.001z"/><path fill="#B0976D" d="M31.094 62.198h.006v.001h-.006zm.005.002h.001v.001h-.001z"/><path fill="#B0976D" d="M31.097 62.195h.001v.006h-.001zm3.364-45.652l15.405 15.409V1.134z"/><path fill="#B0976D" d="M34.455 16.55l15.411 15.405v-.003L34.461 16.543zM73.39 55.474l15.408-15.41h-30.82l11.575 11.575zm-.001.001l.001-.001-3.837-3.835zm15.409-20.163L73.383 19.896 57.974 35.312h.002z"/></svg>