<svg xmlns="http://www.w3.org/2000/svg" width="45" height="45" viewBox="0 0 45 45"><path d="M1.713 44.724a.922.922 0 0 1-.652-1.574l23.498-23.498a.922.922 0 0 1 1.304 1.304L2.365 44.454a.92.92 0 0 1-.652.27zM43.287 14.9h-5.423a.922.922 0 1 1 0-1.844h5.423a.922.922 0 1 1 0 1.844zm-7.23-4.519a.922.922 0 0 1-.652-1.574l3.614-3.615a.922.922 0 0 1 1.304 1.304l-3.614 3.615a.92.92 0 0 1-.652.27zm-4.519-1.807a.922.922 0 0 1-.922-.922V2.229a.922.922 0 1 1 1.844 0v5.423a.922.922 0 0 1-.922.922zm-4.519 1.807a.92.92 0 0 1-.652-.27l-3.615-3.615a.922.922 0 0 1 1.304-1.304l3.614 3.615a.922.922 0 0 1-.651 1.574zM25.211 14.9h-5.423a.922.922 0 0 1 0-1.844h5.423a.922.922 0 1 1 0 1.844zm6.327 11.749a.921.921 0 0 1-.922-.922v-5.422a.922.922 0 1 1 1.844 0v5.422a.922.922 0 0 1-.922.922zm8.133-3.615a.92.92 0 0 1-.652-.27l-3.614-3.615a.922.922 0 0 1 1.304-1.304l3.614 3.615a.922.922 0 0 1-.652 1.574z" fill="#A99169"/></svg>